<mxfile host="app.diagrams.net" modified="2024-04-02T11:04:14.313Z" agent="Mozilla/5.0 (Windows NT 10.0; Win64; x64) AppleWebKit/537.36 (KHTML, like Gecko) Chrome/123.0.0.0 Safari/537.36 Edg/123.0.0.0" etag="KusMEM85mT-9HjB2TzAu" version="24.0.7" type="device">
  <diagram id="C5RBs43oDa-KdzZeNtuy" name="Page-1">
    <mxGraphModel dx="1426" dy="785" grid="1" gridSize="10" guides="1" tooltips="1" connect="1" arrows="1" fold="1" page="1" pageScale="1" pageWidth="827" pageHeight="1169" math="0" shadow="0">
      <root>
        <mxCell id="WIyWlLk6GJQsqaUBKTNV-0" />
        <mxCell id="WIyWlLk6GJQsqaUBKTNV-1" parent="WIyWlLk6GJQsqaUBKTNV-0" />
        <mxCell id="qNied1Jh6DL7EHZy_g-z-2" style="edgeStyle=orthogonalEdgeStyle;rounded=0;orthogonalLoop=1;jettySize=auto;html=1;exitX=0.5;exitY=1;exitDx=0;exitDy=0;entryX=0.5;entryY=0;entryDx=0;entryDy=0;" edge="1" parent="WIyWlLk6GJQsqaUBKTNV-1" source="qNied1Jh6DL7EHZy_g-z-0" target="qNied1Jh6DL7EHZy_g-z-1">
          <mxGeometry relative="1" as="geometry" />
        </mxCell>
        <mxCell id="qNied1Jh6DL7EHZy_g-z-0" value="Начало" style="ellipse;whiteSpace=wrap;html=1;" vertex="1" parent="WIyWlLk6GJQsqaUBKTNV-1">
          <mxGeometry x="354" y="30" width="120" height="80" as="geometry" />
        </mxCell>
        <mxCell id="qNied1Jh6DL7EHZy_g-z-4" style="edgeStyle=orthogonalEdgeStyle;rounded=0;orthogonalLoop=1;jettySize=auto;html=1;exitX=0.5;exitY=1;exitDx=0;exitDy=0;entryX=0.5;entryY=0;entryDx=0;entryDy=0;" edge="1" parent="WIyWlLk6GJQsqaUBKTNV-1" source="qNied1Jh6DL7EHZy_g-z-1" target="qNied1Jh6DL7EHZy_g-z-3">
          <mxGeometry relative="1" as="geometry" />
        </mxCell>
        <mxCell id="qNied1Jh6DL7EHZy_g-z-1" value="Ввод a, b, c" style="shape=parallelogram;perimeter=parallelogramPerimeter;whiteSpace=wrap;html=1;fixedSize=1;" vertex="1" parent="WIyWlLk6GJQsqaUBKTNV-1">
          <mxGeometry x="354" y="140" width="120" height="60" as="geometry" />
        </mxCell>
        <mxCell id="qNied1Jh6DL7EHZy_g-z-7" style="edgeStyle=orthogonalEdgeStyle;rounded=0;orthogonalLoop=1;jettySize=auto;html=1;exitX=0.5;exitY=1;exitDx=0;exitDy=0;entryX=0.5;entryY=0;entryDx=0;entryDy=0;" edge="1" parent="WIyWlLk6GJQsqaUBKTNV-1" source="qNied1Jh6DL7EHZy_g-z-3" target="qNied1Jh6DL7EHZy_g-z-5">
          <mxGeometry relative="1" as="geometry" />
        </mxCell>
        <mxCell id="qNied1Jh6DL7EHZy_g-z-3" value="aa = a * a&lt;br&gt;bb = b * b&lt;br&gt;cc = c * c" style="rounded=0;whiteSpace=wrap;html=1;" vertex="1" parent="WIyWlLk6GJQsqaUBKTNV-1">
          <mxGeometry x="354" y="220" width="120" height="60" as="geometry" />
        </mxCell>
        <mxCell id="qNied1Jh6DL7EHZy_g-z-8" style="edgeStyle=orthogonalEdgeStyle;rounded=0;orthogonalLoop=1;jettySize=auto;html=1;exitX=0;exitY=0.5;exitDx=0;exitDy=0;entryX=1;entryY=0.5;entryDx=0;entryDy=0;" edge="1" parent="WIyWlLk6GJQsqaUBKTNV-1" source="qNied1Jh6DL7EHZy_g-z-5" target="qNied1Jh6DL7EHZy_g-z-6">
          <mxGeometry relative="1" as="geometry" />
        </mxCell>
        <mxCell id="qNied1Jh6DL7EHZy_g-z-12" style="edgeStyle=orthogonalEdgeStyle;rounded=0;orthogonalLoop=1;jettySize=auto;html=1;exitX=0.5;exitY=1;exitDx=0;exitDy=0;entryX=0.5;entryY=0;entryDx=0;entryDy=0;" edge="1" parent="WIyWlLk6GJQsqaUBKTNV-1" source="qNied1Jh6DL7EHZy_g-z-5" target="qNied1Jh6DL7EHZy_g-z-11">
          <mxGeometry relative="1" as="geometry" />
        </mxCell>
        <mxCell id="qNied1Jh6DL7EHZy_g-z-5" value="if (a &amp;gt;= b + c || b &amp;gt;= a + c || c &amp;gt;= a + b)" style="rhombus;whiteSpace=wrap;html=1;" vertex="1" parent="WIyWlLk6GJQsqaUBKTNV-1">
          <mxGeometry x="300" y="300" width="226.5" height="90" as="geometry" />
        </mxCell>
        <mxCell id="qNied1Jh6DL7EHZy_g-z-30" style="edgeStyle=orthogonalEdgeStyle;rounded=0;orthogonalLoop=1;jettySize=auto;html=1;exitX=0;exitY=0.5;exitDx=0;exitDy=0;entryX=0.5;entryY=0;entryDx=0;entryDy=0;" edge="1" parent="WIyWlLk6GJQsqaUBKTNV-1" source="qNied1Jh6DL7EHZy_g-z-6" target="qNied1Jh6DL7EHZy_g-z-25">
          <mxGeometry relative="1" as="geometry">
            <Array as="points">
              <mxPoint x="60" y="345" />
              <mxPoint x="60" y="790" />
              <mxPoint x="414" y="790" />
            </Array>
          </mxGeometry>
        </mxCell>
        <mxCell id="qNied1Jh6DL7EHZy_g-z-6" value="None" style="shape=parallelogram;perimeter=parallelogramPerimeter;whiteSpace=wrap;html=1;fixedSize=1;" vertex="1" parent="WIyWlLk6GJQsqaUBKTNV-1">
          <mxGeometry x="100" y="315" width="120" height="60" as="geometry" />
        </mxCell>
        <mxCell id="qNied1Jh6DL7EHZy_g-z-9" value="+" style="text;html=1;align=center;verticalAlign=middle;resizable=0;points=[];autosize=1;strokeColor=none;fillColor=none;fontSize=18;" vertex="1" parent="WIyWlLk6GJQsqaUBKTNV-1">
          <mxGeometry x="250" y="310" width="30" height="40" as="geometry" />
        </mxCell>
        <mxCell id="qNied1Jh6DL7EHZy_g-z-10" value="-" style="text;html=1;align=center;verticalAlign=middle;resizable=0;points=[];autosize=1;strokeColor=none;fillColor=none;strokeWidth=3;fontSize=18;" vertex="1" parent="WIyWlLk6GJQsqaUBKTNV-1">
          <mxGeometry x="420" y="390" width="30" height="40" as="geometry" />
        </mxCell>
        <mxCell id="qNied1Jh6DL7EHZy_g-z-14" style="edgeStyle=orthogonalEdgeStyle;rounded=0;orthogonalLoop=1;jettySize=auto;html=1;exitX=0;exitY=0.5;exitDx=0;exitDy=0;entryX=1;entryY=0.5;entryDx=0;entryDy=0;" edge="1" parent="WIyWlLk6GJQsqaUBKTNV-1" source="qNied1Jh6DL7EHZy_g-z-11" target="qNied1Jh6DL7EHZy_g-z-13">
          <mxGeometry relative="1" as="geometry" />
        </mxCell>
        <mxCell id="qNied1Jh6DL7EHZy_g-z-20" style="edgeStyle=orthogonalEdgeStyle;rounded=0;orthogonalLoop=1;jettySize=auto;html=1;exitX=0.5;exitY=1;exitDx=0;exitDy=0;entryX=0.5;entryY=0;entryDx=0;entryDy=0;" edge="1" parent="WIyWlLk6GJQsqaUBKTNV-1" source="qNied1Jh6DL7EHZy_g-z-11" target="qNied1Jh6DL7EHZy_g-z-16">
          <mxGeometry relative="1" as="geometry" />
        </mxCell>
        <mxCell id="qNied1Jh6DL7EHZy_g-z-11" value="if (aa == bb + cc || bb == aa + cc || cc == aa + bb)" style="rhombus;whiteSpace=wrap;html=1;" vertex="1" parent="WIyWlLk6GJQsqaUBKTNV-1">
          <mxGeometry x="268" y="430" width="292" height="90" as="geometry" />
        </mxCell>
        <mxCell id="qNied1Jh6DL7EHZy_g-z-31" style="edgeStyle=orthogonalEdgeStyle;rounded=0;orthogonalLoop=1;jettySize=auto;html=1;exitX=0;exitY=0.5;exitDx=0;exitDy=0;entryX=0.5;entryY=0;entryDx=0;entryDy=0;" edge="1" parent="WIyWlLk6GJQsqaUBKTNV-1" source="qNied1Jh6DL7EHZy_g-z-13" target="qNied1Jh6DL7EHZy_g-z-25">
          <mxGeometry relative="1" as="geometry">
            <Array as="points">
              <mxPoint x="60" y="475" />
              <mxPoint x="60" y="790" />
              <mxPoint x="414" y="790" />
            </Array>
          </mxGeometry>
        </mxCell>
        <mxCell id="qNied1Jh6DL7EHZy_g-z-13" value="Right" style="shape=parallelogram;perimeter=parallelogramPerimeter;whiteSpace=wrap;html=1;fixedSize=1;" vertex="1" parent="WIyWlLk6GJQsqaUBKTNV-1">
          <mxGeometry x="100" y="445" width="120" height="60" as="geometry" />
        </mxCell>
        <mxCell id="qNied1Jh6DL7EHZy_g-z-15" value="+" style="text;html=1;align=center;verticalAlign=middle;resizable=0;points=[];autosize=1;strokeColor=none;fillColor=none;fontSize=18;" vertex="1" parent="WIyWlLk6GJQsqaUBKTNV-1">
          <mxGeometry x="250" y="430" width="30" height="40" as="geometry" />
        </mxCell>
        <mxCell id="qNied1Jh6DL7EHZy_g-z-18" style="edgeStyle=orthogonalEdgeStyle;rounded=0;orthogonalLoop=1;jettySize=auto;html=1;exitX=0;exitY=0.5;exitDx=0;exitDy=0;entryX=1;entryY=0.5;entryDx=0;entryDy=0;" edge="1" parent="WIyWlLk6GJQsqaUBKTNV-1" source="qNied1Jh6DL7EHZy_g-z-16" target="qNied1Jh6DL7EHZy_g-z-17">
          <mxGeometry relative="1" as="geometry" />
        </mxCell>
        <mxCell id="qNied1Jh6DL7EHZy_g-z-23" style="edgeStyle=orthogonalEdgeStyle;rounded=0;orthogonalLoop=1;jettySize=auto;html=1;exitX=0.5;exitY=1;exitDx=0;exitDy=0;entryX=0.5;entryY=0;entryDx=0;entryDy=0;" edge="1" parent="WIyWlLk6GJQsqaUBKTNV-1" source="qNied1Jh6DL7EHZy_g-z-16" target="qNied1Jh6DL7EHZy_g-z-22">
          <mxGeometry relative="1" as="geometry" />
        </mxCell>
        <mxCell id="qNied1Jh6DL7EHZy_g-z-16" value="if (aa &amp;lt; bb + cc &amp;amp;&amp;amp; bb &amp;lt; aa + cc &amp;amp;&amp;amp; cc &amp;lt; aa + bb)" style="rhombus;whiteSpace=wrap;html=1;" vertex="1" parent="WIyWlLk6GJQsqaUBKTNV-1">
          <mxGeometry x="268" y="540" width="292" height="90" as="geometry" />
        </mxCell>
        <mxCell id="qNied1Jh6DL7EHZy_g-z-32" style="edgeStyle=orthogonalEdgeStyle;rounded=0;orthogonalLoop=1;jettySize=auto;html=1;exitX=0;exitY=0.5;exitDx=0;exitDy=0;entryX=0.5;entryY=0;entryDx=0;entryDy=0;" edge="1" parent="WIyWlLk6GJQsqaUBKTNV-1" source="qNied1Jh6DL7EHZy_g-z-17" target="qNied1Jh6DL7EHZy_g-z-25">
          <mxGeometry relative="1" as="geometry">
            <Array as="points">
              <mxPoint x="60" y="585" />
              <mxPoint x="60" y="790" />
              <mxPoint x="414" y="790" />
            </Array>
          </mxGeometry>
        </mxCell>
        <mxCell id="qNied1Jh6DL7EHZy_g-z-17" value="Acute" style="shape=parallelogram;perimeter=parallelogramPerimeter;whiteSpace=wrap;html=1;fixedSize=1;" vertex="1" parent="WIyWlLk6GJQsqaUBKTNV-1">
          <mxGeometry x="100" y="555" width="120" height="60" as="geometry" />
        </mxCell>
        <mxCell id="qNied1Jh6DL7EHZy_g-z-19" value="+" style="text;html=1;align=center;verticalAlign=middle;resizable=0;points=[];autosize=1;strokeColor=none;fillColor=none;fontSize=18;" vertex="1" parent="WIyWlLk6GJQsqaUBKTNV-1">
          <mxGeometry x="250" y="545" width="30" height="40" as="geometry" />
        </mxCell>
        <mxCell id="qNied1Jh6DL7EHZy_g-z-21" value="-" style="text;html=1;align=center;verticalAlign=middle;resizable=0;points=[];autosize=1;strokeColor=none;fillColor=none;strokeWidth=3;fontSize=18;" vertex="1" parent="WIyWlLk6GJQsqaUBKTNV-1">
          <mxGeometry x="420" y="505" width="30" height="40" as="geometry" />
        </mxCell>
        <mxCell id="qNied1Jh6DL7EHZy_g-z-26" style="edgeStyle=orthogonalEdgeStyle;rounded=0;orthogonalLoop=1;jettySize=auto;html=1;exitX=0.5;exitY=1;exitDx=0;exitDy=0;entryX=0.5;entryY=0;entryDx=0;entryDy=0;" edge="1" parent="WIyWlLk6GJQsqaUBKTNV-1" source="qNied1Jh6DL7EHZy_g-z-22" target="qNied1Jh6DL7EHZy_g-z-25">
          <mxGeometry relative="1" as="geometry" />
        </mxCell>
        <mxCell id="qNied1Jh6DL7EHZy_g-z-22" value="Obtuse" style="shape=parallelogram;perimeter=parallelogramPerimeter;whiteSpace=wrap;html=1;fixedSize=1;" vertex="1" parent="WIyWlLk6GJQsqaUBKTNV-1">
          <mxGeometry x="354" y="680" width="120" height="50" as="geometry" />
        </mxCell>
        <mxCell id="qNied1Jh6DL7EHZy_g-z-24" value="-" style="text;html=1;align=center;verticalAlign=middle;resizable=0;points=[];autosize=1;strokeColor=none;fillColor=none;strokeWidth=3;fontSize=18;" vertex="1" parent="WIyWlLk6GJQsqaUBKTNV-1">
          <mxGeometry x="420" y="630" width="30" height="40" as="geometry" />
        </mxCell>
        <mxCell id="qNied1Jh6DL7EHZy_g-z-25" value="Конец" style="ellipse;whiteSpace=wrap;html=1;" vertex="1" parent="WIyWlLk6GJQsqaUBKTNV-1">
          <mxGeometry x="354" y="820" width="120" height="80" as="geometry" />
        </mxCell>
        <mxCell id="qNied1Jh6DL7EHZy_g-z-34" value="&lt;font face=&quot;Comic Sans MS&quot; style=&quot;font-size: 15px;&quot;&gt;A&lt;/font&gt;" style="text;html=1;align=center;verticalAlign=middle;resizable=0;points=[];autosize=1;strokeColor=none;fillColor=none;" vertex="1" parent="WIyWlLk6GJQsqaUBKTNV-1">
          <mxGeometry x="320" y="285" width="30" height="30" as="geometry" />
        </mxCell>
        <mxCell id="qNied1Jh6DL7EHZy_g-z-35" value="&lt;font face=&quot;Comic Sans MS&quot; style=&quot;font-size: 15px;&quot;&gt;B&lt;/font&gt;" style="text;html=1;align=center;verticalAlign=middle;resizable=0;points=[];autosize=1;strokeColor=none;fillColor=none;" vertex="1" parent="WIyWlLk6GJQsqaUBKTNV-1">
          <mxGeometry x="145" y="280" width="30" height="30" as="geometry" />
        </mxCell>
        <mxCell id="qNied1Jh6DL7EHZy_g-z-36" value="&lt;font face=&quot;Comic Sans MS&quot; style=&quot;font-size: 15px;&quot;&gt;C&lt;/font&gt;" style="text;html=1;align=center;verticalAlign=middle;resizable=0;points=[];autosize=1;strokeColor=none;fillColor=none;" vertex="1" parent="WIyWlLk6GJQsqaUBKTNV-1">
          <mxGeometry x="324" y="410" width="30" height="30" as="geometry" />
        </mxCell>
        <mxCell id="qNied1Jh6DL7EHZy_g-z-37" value="&lt;font face=&quot;Comic Sans MS&quot; style=&quot;font-size: 15px;&quot;&gt;D&lt;/font&gt;" style="text;html=1;align=center;verticalAlign=middle;resizable=0;points=[];autosize=1;strokeColor=none;fillColor=none;" vertex="1" parent="WIyWlLk6GJQsqaUBKTNV-1">
          <mxGeometry x="145" y="410" width="30" height="30" as="geometry" />
        </mxCell>
        <mxCell id="qNied1Jh6DL7EHZy_g-z-38" value="&lt;font face=&quot;Comic Sans MS&quot; style=&quot;font-size: 15px;&quot;&gt;E&lt;/font&gt;" style="text;html=1;align=center;verticalAlign=middle;resizable=0;points=[];autosize=1;strokeColor=none;fillColor=none;" vertex="1" parent="WIyWlLk6GJQsqaUBKTNV-1">
          <mxGeometry x="320" y="525" width="30" height="30" as="geometry" />
        </mxCell>
        <mxCell id="qNied1Jh6DL7EHZy_g-z-39" value="&lt;font face=&quot;Comic Sans MS&quot; style=&quot;font-size: 15px;&quot;&gt;F&lt;/font&gt;" style="text;html=1;align=center;verticalAlign=middle;resizable=0;points=[];autosize=1;strokeColor=none;fillColor=none;" vertex="1" parent="WIyWlLk6GJQsqaUBKTNV-1">
          <mxGeometry x="145" y="520" width="30" height="30" as="geometry" />
        </mxCell>
        <mxCell id="qNied1Jh6DL7EHZy_g-z-40" value="&lt;font face=&quot;Comic Sans MS&quot; style=&quot;font-size: 15px;&quot;&gt;G&lt;/font&gt;" style="text;html=1;align=center;verticalAlign=middle;resizable=0;points=[];autosize=1;strokeColor=none;fillColor=none;" vertex="1" parent="WIyWlLk6GJQsqaUBKTNV-1">
          <mxGeometry x="320" y="690" width="30" height="30" as="geometry" />
        </mxCell>
      </root>
    </mxGraphModel>
  </diagram>
</mxfile>
